<?xml version="1.0" encoding="utf-8"?>
<!-- Generator: Adobe Illustrator 23.1.0, SVG Export Plug-In . SVG Version: 6.00 Build 0)  -->
<svg version="1.1" id="Capa_1" xmlns="http://www.w3.org/2000/svg" xmlns:xlink="http://www.w3.org/1999/xlink" x="0px" y="0px"
	 viewBox="0 0 100 100" style="enable-background:new 0 0 100 100;" xml:space="preserve">
<style type="text/css">
	.st0{fill:none;}
	.st1{fill:#FFFFFF;}
</style>
<g>
	<polygon class="st0" points="56,81 52,81 50,81 47.73,81 52.33,89 55.67,89 60.27,81 58,81 	"/>
	<rect x="58" y="20" class="st1" width="3" height="59"/>
	<rect x="47" y="20" class="st1" width="3" height="59"/>
	<rect x="52" y="20" class="st1" width="4" height="59"/>
	<path d="M58,19h-2h-4h-2h-4v61l8,13.9L62,80V19H58z M52,20h4v59h-4V20z M47,20h3v59h-3V20z M55.67,89h-3.33l-4.6-8H50h2h4h2h2.27
		L55.67,89z M61,79h-3V20h3V79z"/>
</g>
</svg>
